HIERARCHY
ROOT Hips
{
	OFFSET 0.000000 0.000000 0.000000 
	CHANNELS 6 Xposition Yposition Zposition Zrotation Yrotation Xrotation
	JOINT LeftUpLeg
	{
		OFFSET 1.363060 -1.794630 0.839290 
		CHANNELS 3 Zrotation Yrotation Xrotation
		JOINT LeftLeg
		{
			OFFSET 2.448110 -6.726130 0.000000 
			CHANNELS 3 Zrotation Yrotation Xrotation
			JOINT LeftFoot
			{
				OFFSET 2.562200 -7.039590 0.000000 
				CHANNELS 3 Zrotation Yrotation Xrotation
				JOINT LeftToeBase
				{
					OFFSET 0.157640 -0.433110 2.322550 
					CHANNELS 3 Zrotation Yrotation Xrotation
					End Site
					{
						OFFSET 0.000000 0.000000 0.000000 
					}
				}
			}
		}
	}
	JOINT RightUpLeg
	{
		OFFSET -1.305520 -1.794630 0.839290 
		CHANNELS 3 Zrotation Yrotation Xrotation
		JOINT RightLeg
		{
			OFFSET -2.542530 -6.985550 0.000000 
			CHANNELS 3 Zrotation Yrotation Xrotation
			JOINT RightFoot
			{
				OFFSET -2.568260 -7.056230 0.000000 
				CHANNELS 3 Zrotation Yrotation Xrotation
				JOINT RightToeBase
				{
					OFFSET -0.164730 -0.452590 2.363150 
					CHANNELS 3 Zrotation Yrotation Xrotation
					End Site
					{
						OFFSET 0.000000 0.000000 0.000000 
					}
				}
			}
		}
	}
	JOINT Spine
	{
		OFFSET 0.028270 2.035590 -0.193380 
		CHANNELS 3 Zrotation Yrotation Xrotation
		JOINT Spine1
		{
			OFFSET 0.056720 2.048850 -0.042750 
			CHANNELS 3 Zrotation Yrotation Xrotation
			JOINT Neck1
			{
				OFFSET -0.054170 1.746240 0.172020 
				CHANNELS 3 Zrotation Yrotation Xrotation
				JOINT Head
				{
					OFFSET 0.104070 1.761360 -0.123970 
					CHANNELS 3 Zrotation Yrotation Xrotation
					End Site
					{
						OFFSET 0.000000 0.000000 0.000000 
					}
				}
			}
			JOINT LeftArm
			{
				OFFSET 3.362410 1.200890 -0.311210 
				CHANNELS 3 Zrotation Yrotation Xrotation
				JOINT LeftForeArm
				{
					OFFSET 4.983000 -0.000000 -0.000000 
					CHANNELS 3 Zrotation Yrotation Xrotation
					JOINT LeftHand
					{
						OFFSET 3.483560 -0.000000 -0.000000 
						CHANNELS 3 Zrotation Yrotation Xrotation
						JOINT LeftHandIndex1
						{
							OFFSET 0.715260 -0.000000 -0.000000 
							CHANNELS 3 Zrotation Yrotation Xrotation
							End Site
							{
								OFFSET 0.000000 0.000000 0.000000 
							}
						}
					}
				}
			}
			JOINT RightArm
			{
				OFFSET -3.136600 1.374050 -0.404650 
				CHANNELS 3 Zrotation Yrotation Xrotation
				JOINT RightForeArm
				{
					OFFSET -5.241900 -0.000000 -0.000000 
					CHANNELS 3 Zrotation Yrotation Xrotation
					JOINT RightHand
					{
						OFFSET -3.444170 -0.000000 -0.000000 
						CHANNELS 3 Zrotation Yrotation Xrotation
						JOINT RightHandIndex1
						{
							OFFSET -0.622530 -0.000000 -0.000000 
							CHANNELS 3 Zrotation Yrotation Xrotation
							End Site
							{
								OFFSET 0.000000 0.000000 0.000000 
							}
						}
					}
				}
			}
		}
	}
}
MOTION
Frames: 10
Frame Time: 0.041667
10.509277 17.452114 -16.625952 -5.797832 -4.344445 1.855625 -23.287370 -22.177373 -34.178935 1.318972 12.213554 30.840219 -1.488678 12.264571 -2.670280 0.322700 -3.651300 -10.097600 39.355979 -12.993220 31.625803 1.317228 -0.113583 9.367871 0.622157 1.469536 8.047140 -1.078300 6.600300 -18.536500 0.287380 3.701244 -3.112017 -1.399936 2.262364 6.298900 2.507026 -3.050256 9.309348 4.117800 -2.278800 11.902600 -76.918018 11.189031 28.480145 9.452546 -19.511380 -2.384480 -0.839213 -1.593621 7.161477 -7.125000 0.000000 0.000000 70.275380 -6.107909 43.224295 -28.979702 36.520737 -11.061427 -0.636952 -0.077555 -11.317305 7.125000 0.000000 0.000000 
10.522141 17.467698 -16.411436 -5.338563 -4.579481 1.838401 -24.317924 -21.480145 -33.895702 1.482114 12.433481 31.633686 -1.260166 10.934611 -2.241424 0.251700 -3.227900 -8.913800 39.704316 -11.823099 28.662897 0.340596 -2.180323 15.207463 0.596575 1.510880 8.152011 -1.273100 7.151200 -20.164100 0.224349 3.803538 -3.079744 -1.297505 2.326513 6.365092 2.571001 -3.058587 9.252605 4.172600 -2.275200 11.912700 -76.957585 10.895914 28.351645 9.317706 -19.300397 -2.335943 -0.855225 -1.580969 7.571004 -7.125000 0.000000 0.000000 70.493468 -6.181375 43.068834 -28.625762 36.212274 -10.817837 -0.621379 -0.066116 -11.361853 7.125000 0.000000 0.000000 
10.536470 17.468953 -16.197966 -4.727239 -4.406038 1.961232 -25.532066 -20.968643 -33.851403 1.625436 12.654690 32.347657 -1.104382 10.152483 -0.984861 0.207400 -2.932200 -8.090000 39.393062 -11.355100 26.485091 -0.510011 -3.687539 19.636284 0.578765 0.869775 8.889309 -1.066900 6.566500 -18.437100 0.157127 3.749579 -3.069727 -1.204091 2.298812 6.438358 2.554383 -3.050239 9.155277 4.159800 -2.263300 11.845300 -76.893755 10.514293 28.485665 9.146809 -19.055317 -2.287964 -0.873388 -1.607874 7.635542 -7.125000 0.000000 0.000000 70.767714 -6.417110 42.673899 -28.448252 36.075777 -10.712724 -0.626672 -0.055950 -11.183554 7.125000 0.000000 0.000000 
10.548498 17.474496 -15.986484 -4.223536 -4.234478 2.119157 -26.559315 -20.619919 -33.686091 1.742625 12.826804 32.926958 -0.990260 9.573043 -0.056067 0.188400 -2.795700 -7.710400 39.142585 -10.887937 24.420699 -1.337934 -5.011510 23.682704 0.545293 0.053718 9.714055 -0.888300 6.007700 -16.806800 0.103623 3.700960 -3.144620 -1.133932 2.271186 6.222618 2.495911 -2.995681 9.172835 4.102800 -2.241700 11.827400 -76.870886 10.434233 28.529353 9.040421 -18.920029 -2.271610 -0.875070 -1.659141 7.897935 -7.125000 0.000000 0.000000 71.080737 -6.838358 42.364961 -28.236987 35.928961 -10.615478 -0.639755 -0.100491 -10.931755 7.125000 0.000000 0.000000 
10.559166 17.488825 -15.773851 -3.830928 -4.418712 2.074612 -27.394029 -20.266283 -33.113903 1.855547 12.941927 33.444148 -0.929256 9.121315 -0.020074 0.278100 -3.392000 -9.371900 38.941696 -10.209825 22.654027 -2.143252 -6.173420 27.419324 0.496152 -0.892532 10.869861 -0.823100 5.788700 -16.172600 0.029975 3.799579 -3.234877 -1.138946 2.323946 5.818297 2.560487 -2.994878 9.215839 4.137400 -2.241600 11.796000 -76.757645 10.767519 28.623721 9.145239 -19.095656 -2.320184 -0.859403 -1.697581 8.404063 -7.125000 0.000000 0.000000 71.479195 -7.355379 42.225579 -27.947850 35.726304 -10.477885 -0.647804 -0.168154 -10.920843 7.125000 0.000000 0.000000 
10.576215 17.505874 -15.562578 -3.321528 -4.636661 1.941663 -28.413868 -19.910996 -32.236325 1.932634 12.978344 33.776142 -0.899983 8.827164 -0.128685 0.419600 -4.157800 -11.521000 38.480712 -9.582129 20.892354 -3.012768 -7.295374 31.229222 0.407722 -1.628001 12.238517 -0.745500 5.515300 -15.384400 -0.068284 3.925562 -3.276122 -1.203514 2.396095 5.536267 2.622261 -3.067751 9.220217 4.165600 -2.268400 11.763400 -76.577046 10.913709 28.924252 9.291625 -19.306098 -2.373046 -0.857037 -1.709020 8.399248 -7.125000 0.000000 0.000000 71.868600 -7.731554 42.097101 -27.588343 35.434963 -10.263294 -0.641473 -0.196552 -11.146602 7.125000 0.000000 0.000000 
10.601735 17.528361 -15.353292 -2.572926 -4.570294 1.889303 -29.782355 -19.702760 -31.192480 1.939045 12.925047 33.817615 -0.844700 8.347735 -0.341830 0.375600 -3.936300 -10.897600 37.699785 -9.123628 18.878228 -3.948499 -8.394234 35.165203 0.283240 -1.903645 13.311889 -0.828000 5.805400 -16.220900 -0.154191 3.896351 -3.244175 -1.176736 2.382525 5.624288 2.586049 -3.101590 9.228730 4.128600 -2.281900 11.785000 -76.528017 10.518466 29.100319 9.267295 -19.245407 -2.366874 -0.863839 -1.715020 8.285338 -7.125000 0.000000 0.000000 72.058135 -7.818734 41.971109 -27.257598 35.150909 -10.059892 -0.630766 -0.211161 -11.370703 7.125000 0.000000 0.000000 
10.622235 17.558064 -15.154569 -1.794490 -4.439073 1.872108 -31.142445 -19.595481 -30.037553 1.884319 12.780775 33.576920 -0.782527 7.810274 -0.699844 0.290500 -3.465800 -9.578300 37.139625 -8.413478 16.697324 -4.886655 -9.456907 39.113907 0.163017 -2.845436 14.155492 -0.931200 6.147100 -17.211900 -0.229235 3.824450 -3.219773 -1.086742 2.341512 5.681944 2.507716 -3.096064 9.243635 4.069100 -2.284700 11.821400 -76.483186 10.079764 29.249335 9.175522 -19.087010 -2.329022 -0.872171 -1.698126 8.241301 -7.125000 0.000000 0.000000 72.244285 -7.801276 41.812577 -26.824261 34.769606 -9.804128 -0.625771 -0.238861 -10.910296 7.125000 0.000000 0.000000 
10.635936 17.593311 -14.963691 -0.938008 -4.356022 1.893414 -32.547811 -19.457430 -28.835801 1.782810 12.563665 33.110076 -0.757966 7.535642 -0.971559 0.272200 -3.355800 -9.270900 36.679546 -7.433985 14.347893 -5.822429 -10.463320 42.970811 0.022410 -4.772317 15.499921 -0.826600 5.800600 -16.207100 -0.323850 3.770060 -3.218757 -0.986348 2.307002 5.636940 2.440333 -3.124715 9.236700 4.005300 -2.296400 11.864700 -76.338588 9.690894 29.609842 9.139574 -19.008793 -2.308339 -0.881385 -1.677988 8.021401 -7.125000 0.000000 0.000000 72.531397 -7.671814 41.630993 -26.319952 34.290722 -9.480987 -0.626252 -0.238881 -10.439858 7.125000 0.000000 0.000000 
10.651102 17.631173 -14.767165 -0.040746 -4.344357 1.992098 -34.018946 -19.155724 -27.601581 1.655788 12.288152 32.492134 -0.735994 7.293152 -1.082677 0.387400 -3.997000 -11.068200 36.122061 -6.363675 11.958895 -6.737847 -11.380575 46.647170 -0.144944 -6.374326 16.842761 -0.708500 5.379700 -14.994800 -0.400186 3.674037 -3.244769 -0.772393 2.236599 5.547804 2.478462 -3.060089 9.238899 4.050400 -2.274000 11.868200 -76.318436 9.477179 29.969524 9.187720 -19.061704 -2.327406 -0.886071 -1.687388 7.779561 -7.125000 0.000000 0.000000 72.727953 -7.811499 41.377580 -26.399225 34.333967 -9.487096 -0.642181 -0.157804 -11.289342 7.125000 0.000000 0.000000 
